<?xml version="1.0" encoding="UTF-8" standalone="no"?>
<svg
   xmlns:dc="http://purl.org/dc/elements/1.1/"
   xmlns:cc="http://creativecommons.org/ns#"
   xmlns:rdf="http://www.w3.org/1999/02/22-rdf-syntax-ns#"
   xmlns:svg="http://www.w3.org/2000/svg"
   xmlns="http://www.w3.org/2000/svg"
   xmlns:sodipodi="http://sodipodi.sourceforge.net/DTD/sodipodi-0.dtd"
   xmlns:inkscape="http://www.inkscape.org/namespaces/inkscape"
   width="210mm"
   height="45mm"
   viewBox="0 0 210 45"
   version="1.1"
   id="svg4027"
   sodipodi:docname="Mesh_dep_kleineelem.svg"
   inkscape:version="1.0.2 (394de47547, 2021-03-26)">
  <defs
     id="defs4021">
    <symbol
       id="Buffer_Small">
      <title
         id="title4683">Buffer Small</title>
      <path
         d="M 9.9778537,10.583333 16.592437,13.229167 9.9778537,15.875 Z"
         id="path4685"
         style="stroke-width:0.264583" />
    </symbol>
  </defs>
  <sodipodi:namedview
     id="base"
     pagecolor="#ffffff"
     bordercolor="#666666"
     borderopacity="1.0"
     inkscape:pageopacity="0.0"
     inkscape:pageshadow="2"
     inkscape:zoom="0.98768416"
     inkscape:cx="342.11368"
     inkscape:cy="176.36563"
     inkscape:document-units="mm"
     inkscape:current-layer="layer1"
     inkscape:document-rotation="0"
     showgrid="false"
     inkscape:window-width="1920"
     inkscape:window-height="1043"
     inkscape:window-x="1920"
     inkscape:window-y="0"
     inkscape:window-maximized="1" />
  <metadata
     id="metadata4024">
    <rdf:RDF>
      <cc:Work
         rdf:about="">
        <dc:format>image/svg+xml</dc:format>
        <dc:type
           rdf:resource="http://purl.org/dc/dcmitype/StillImage" />
        <dc:title></dc:title>
      </cc:Work>
    </rdf:RDF>
  </metadata>
  <g
     inkscape:label="Ebene 1"
     inkscape:groupmode="layer"
     id="layer1">
    <path
       style="fill:#000000;stroke-width:0.160205"
       d="M 131.66533,42.231948 C 103.36579,42.088671 52.598013,41.784523 26.092523,41.599475 15.860073,41.528001 11.857511,41.445999 11.779201,41.306117 c -0.158572,-0.283242 -0.136203,-2.899577 0.0402,-4.704122 0.491909,-5.03165 2.171403,-8.832579 6.045029,-13.680749 0.619724,-0.775626 1.401178,-1.761491 1.736564,-2.190801 0.335387,-0.429316 0.855378,-1.092798 1.155531,-1.474407 0.300153,-0.381616 0.838388,-1.123853 1.196086,-1.649431 0.513144,-0.753986 0.940428,-1.135824 2.025212,-1.809835 0.756174,-0.469833 2.094482,-1.347268 2.974012,-1.949858 0.879542,-0.602584 1.661898,-1.095611 1.738589,-1.095611 0.07668,0 0.139431,-0.06894 0.139431,-0.153226 0,-0.08427 0.116544,-0.199229 0.25894,-0.255445 0.142408,-0.05618 0.458695,-0.241082 0.702828,-0.41081 3.165839,-2.2008782 6.628527,-4.1750247 8.729914,-4.977113 0.406907,-0.1553099 0.872999,-0.3570892 1.035762,-0.4484015 0.565437,-0.3171954 4.004545,-1.233841 5.622651,-1.4986309 2.489875,-0.407445 8.150948,-0.5397047 15.906209,-0.3716162 3.865572,0.083789 9.791565,0.2132248 13.168849,0.2876487 3.662547,0.080716 9.364914,0.060185 14.130628,-0.050876 10.63322,-0.247749 26.215224,-0.236722 35.511544,0.025117 7.85514,0.2212563 10.12706,0.1844577 23.89629,-0.3870371 11.78673,-0.4892183 19.04157,-0.1182063 23.85318,1.2198265 3.16499,0.880129 6.95537,2.606554 9.28515,4.2291449 0.5606,0.3904256 1.08531,0.7098636 1.16603,0.7098636 0.0807,0 0.16894,0.06584 0.19608,0.146303 0.0465,0.137951 1.60744,1.171713 4.63623,3.070433 0.73242,0.459154 1.53142,0.974982 1.77557,1.146295 0.24414,0.171308 0.69363,0.471197 0.99886,0.666426 1.97478,1.263083 4.21348,3.515497 6.20736,6.245422 2.59855,3.557808 3.92375,5.757176 5.06901,8.412781 1.18149,2.739626 1.71785,4.531857 2.13145,7.122268 0.18777,1.175935 0.22877,4.523638 0.0568,4.642546 -0.25102,0.173653 -45.23821,0.242679 -71.50393,0.109685 z m 66.69508,-2.36483 c 1.28041,-0.290609 1.43147,-0.46183 1.08457,-1.229334 -0.0749,-0.165653 -0.28774,-0.769538 -0.47305,-1.341959 -0.62142,-1.919563 -1.70917,-3.791293 -2.73781,-4.71109 l -0.51578,-0.461157 -2.10065,1.221884 c -1.15536,0.672044 -3.09941,1.788959 -4.32012,2.482046 -2.41712,1.372391 -4.59372,2.880404 -5.38602,3.731613 l -0.50366,0.541084 2.35299,-0.06694 c 1.29414,-0.03683 3.5182,0.0083 4.94236,0.100617 3.15257,0.204016 6.024,0.104045 7.65717,-0.266651 z M 31.436371,39.415088 c 0.07305,-0.08563 -1.351977,-1.338688 -1.522455,-1.338688 -0.0544,0 -0.204092,-0.10886 -0.332572,-0.241828 -0.12848,-0.133051 -0.932737,-0.683069 -1.787235,-1.222365 -1.520604,-0.959685 -2.017462,-1.247009 -5.278823,-3.052655 -0.880844,-0.487669 -2.056271,-1.153969 -2.612082,-1.480645 -0.555787,-0.32669 -1.097364,-0.593974 -1.203483,-0.593974 -0.232771,0 -1.11961,1.124899 -1.601839,2.031818 -0.805401,1.514719 -2.483475,5.483171 -2.371751,5.608938 0.279921,0.315088 4.227488,0.479904 10.230512,0.427124 3.525684,-0.03107 6.441553,-0.09305 6.479728,-0.137725 z M 179.63104,39.111861 c 0.29866,-0.09732 0.68084,-0.31146 0.84929,-0.476041 0.29347,-0.286734 0.29693,-0.33546 0.0831,-1.166534 -0.12271,-0.477018 -0.37338,-1.179521 -0.55701,-1.561136 -0.26886,-0.558717 -0.42879,-0.704593 -0.82136,-0.749098 -0.63827,-0.0723 -3.2257,0.714434 -4.28917,1.304228 -0.78339,0.434464 -2.24436,1.833589 -2.24436,2.149379 0,0.480083 5.7706,0.89283 6.9795,0.499202 z m -137.400381,-0.881325 0.386153,-0.452965 -1.233827,-0.78063 c -1.499018,-0.948414 -3.028239,-1.739353 -4.119131,-2.130493 -0.447592,-0.160472 -1.004563,-0.361574 -1.237709,-0.446888 -0.446817,-0.16351 -0.685839,-0.08728 -0.685839,0.218558 0,0.101167 -0.236932,0.641132 -0.52651,1.199974 -0.342034,0.66006 -0.536453,1.262885 -0.554872,1.720482 l -0.02838,0.704386 1.627615,0.07889 c 0.895183,0.04344 1.993825,0.149985 2.441416,0.236854 0.447592,0.08687 1.428306,0.145998 2.179357,0.131401 1.259774,-0.02446 1.395454,-0.06171 1.751698,-0.479561 z m 141.211881,-0.75314 c 0.89454,-0.697143 2.16106,-1.451933 4.63837,-2.764272 0.47018,-0.249058 0.89152,-0.45284 0.93634,-0.45284 0.15859,0 2.36225,-1.283118 3.09165,-1.800161 1.05833,-0.750213 2.28604,-1.849025 2.4381,-2.18216 0.28056,-0.614537 -1.0329,-3.176511 -2.47128,-4.820336 -1.28603,-1.469745 -1.46111,-1.500342 -2.51795,-0.439989 -0.46863,0.470173 -1.75094,1.571239 -2.84958,2.446805 -2.95169,2.352364 -4.14056,3.628362 -4.8648,5.221302 -0.38252,0.841314 -0.46193,1.212016 -0.46193,2.156141 0,1.333177 0.60696,3.407961 0.99699,3.407961 0.0401,0 0.51896,-0.347596 1.06409,-0.772451 z M 33.188925,36.830614 c 0.419065,-1.113463 0.671734,-2.212426 0.671734,-2.921541 0,-0.549661 -0.144965,-0.831871 -0.99876,-1.944249 -0.549315,-0.715685 -1.394656,-1.721375 -1.878536,-2.234871 -0.483879,-0.513511 -0.985076,-1.050733 -1.113766,-1.193831 -1.20121,-1.335705 -5.52312,-5.03033 -5.884418,-5.03033 -0.08805,0 -0.801045,0.796615 -1.584527,1.770264 -1.367571,1.699466 -2.19509,2.988659 -2.560644,3.989194 -0.165682,0.453473 -0.142819,0.489265 0.692509,1.084132 0.475109,0.338345 0.895077,0.615168 0.933254,0.615168 0.03823,0 0.695311,0.39973 1.460302,0.888294 2.622223,1.674683 9.550739,5.689703 9.833375,5.698376 0.08606,0.0028 0.27933,-0.321631 0.429477,-0.720606 z M 161.9241,36.940162 c 2.97521,-0.09333 6.8842,-0.473416 7.19655,-0.699727 0.0702,-0.05085 0.12771,-0.210435 0.12771,-0.354536 0,-0.470091 -0.89764,-2.803611 -1.62183,-4.216177 -0.38949,-0.759724 -0.74779,-1.502364 -0.79623,-1.650328 -0.11068,-0.338126 -0.59881,-0.3464 -1.02733,-0.01746 -0.18024,0.138384 -1.2266,0.729444 -2.32524,1.313452 -3.11298,1.65478 -4.42808,2.426009 -5.54867,3.253894 -1.02386,0.756439 -2.44141,2.220879 -2.44141,2.522155 0,0.08852 0.68584,0.111473 1.59061,0.05319 0.87485,-0.05635 3.05548,-0.148349 4.84584,-0.204524 z M 60.19838,36.776514 c 0,-0.1438 -2.327629,-1.874356 -4.43897,-3.30031 -1.934369,-1.306443 -7.358098,-4.591126 -7.583166,-4.592459 -0.06109,-3.57e-4 -0.113026,0.0969 -0.115606,0.216153 -0.0059,0.282954 -0.515231,1.474159 -1.283037,3.001579 -0.817248,1.625777 -1.110577,2.52438 -1.053208,3.226444 0.04397,0.537359 0.102122,0.596929 0.787244,0.805536 0.452106,0.137656 2.494882,0.28951 5.252749,0.390466 4.111076,0.150493 5.326507,0.198656 7.657172,0.303392 0.427237,0.01925 0.77681,-0.0041 0.77681,-0.05085 z m 90.3779,-0.810072 c 1.03849,-0.302031 1.8041,-0.926862 1.8041,-1.472399 0,-0.12123 -0.28299,-0.309989 -0.62884,-0.419564 -0.81501,-0.258198 -1.74374,-0.01636 -2.801,0.729347 -1.121,0.790679 -1.35625,1.045922 -1.12357,1.219026 0.28059,0.208772 1.9557,0.174395 2.74931,-0.05649 z m -83.076128,-0.32181 c 0.111385,-0.11958 -0.547158,-0.581507 -1.901059,-1.33352 -0.244144,-0.135662 -0.565507,-0.323982 -0.714129,-0.418602 -0.39272,-0.25002 -1.616031,-0.389091 -2.231626,-0.253704 -0.456033,0.100342 -0.531424,0.184141 -0.531424,0.591129 0,0.455342 0.06344,0.494818 1.590624,0.989525 0.87484,0.283407 1.823664,0.562484 2.108504,0.620186 0.577888,0.117107 1.486778,0.011 1.67911,-0.195014 z M 172.94748,34.948079 c 0.36621,-0.168031 1.23181,-0.615703 1.92353,-0.994817 0.69174,-0.379112 1.62392,-0.826894 2.07151,-0.995078 0.44759,-0.168169 0.83854,-0.330744 0.86877,-0.361271 0.067,-0.06762 -0.65951,-1.553701 -1.05242,-2.152705 -0.28849,-0.439797 -0.85301,-1.238542 -2.00905,-2.842618 -0.35149,-0.487712 -0.89883,-1.355085 -1.21634,-1.927507 -0.99902,-1.801137 -0.86372,-1.684003 -1.62175,-1.404265 -1.17608,0.43401 -1.72625,0.769908 -2.2644,1.382575 -0.65218,0.742488 -0.90428,1.308106 -1.14135,2.560682 -0.15739,0.831692 -0.14865,1.166821 0.0585,2.241978 0.288,1.495064 1.0557,3.183039 1.93946,4.264284 0.59884,0.732673 0.66914,0.770884 1.2068,0.656115 0.31401,-0.06708 0.87055,-0.25934 1.23676,-0.427373 z M 44.025538,34.365405 c 0.702593,-0.935714 1.243841,-2.169887 2.053504,-4.682447 l 0.621082,-1.92737 -0.760079,-0.970695 C 45.522,26.251026 44.861617,25.408104 44.472532,24.911733 44.059681,24.385055 43.474348,23.863049 43.066867,23.65814 c -0.673176,-0.338523 -0.705044,-0.339775 -0.88809,-0.03491 -0.789719,1.315362 -2.482535,3.87544 -2.949718,4.460906 -0.692521,0.867854 -1.353515,1.877352 -1.81018,2.764573 -0.409698,0.795983 -0.384091,0.838813 1.048893,1.753922 0.84187,0.537633 4.598789,2.467451 4.887042,2.510334 0.05417,0.0083 0.355951,-0.328365 0.670724,-0.747586 z m 92.005042,-0.103082 c 0.81363,-0.189679 1.91215,-0.460139 2.44113,-0.601024 0.52896,-0.140873 1.2281,-0.260082 1.55363,-0.264893 0.86638,-0.01237 1.00086,-0.161971 0.79544,-0.88226 -0.21669,-0.759751 -0.81041,-1.525633 -1.41955,-1.831169 -0.98365,-0.493388 -2.57972,-0.153847 -4.49501,0.956263 -1.08534,0.629064 -2.96942,2.099924 -3.04917,2.380416 -0.0673,0.236496 0.97644,0.539186 1.95405,0.566704 0.40708,0.01101 1.40583,-0.134425 2.21948,-0.324037 z M 83.081962,33.943312 c 0.209157,-0.137175 0.07258,-0.271972 -0.772261,-0.761938 -0.564487,-0.32739 -1.292687,-0.789385 -1.618212,-1.026664 -1.125398,-0.820325 -2.667,-1.657515 -3.606936,-1.958805 -0.87375,-0.280066 -0.989509,-0.281881 -1.564453,-0.02446 -0.341483,0.152885 -0.755319,0.49145 -0.919617,0.752357 -0.35145,0.558099 -0.697364,1.702282 -0.581243,1.922558 0.04467,0.08467 0.4936,0.208704 0.997646,0.275559 0.504046,0.0668 1.554229,0.284686 2.333748,0.484069 0.77953,0.199398 1.750232,0.422327 2.157139,0.495395 0.92685,0.166451 3.235157,0.06432 3.574189,-0.158052 z m 72.479668,-0.341109 c 0.32551,-0.236715 1.16032,-0.87349 1.85512,-1.415054 0.69481,-0.541579 2.25588,-1.55153 3.46907,-2.244357 3.63064,-2.073341 4.35109,-2.793232 3.8301,-3.827167 -0.23467,-0.465706 -1.85517,-1.569095 -2.30445,-1.569095 -0.11208,0 -0.50065,0.357424 -0.86347,0.794266 -0.36279,0.436855 -1.58736,1.622245 -2.72121,2.634203 -1.13388,1.011956 -2.47381,2.325574 -2.97764,2.919121 -0.91908,1.082786 -1.93075,2.882383 -1.78055,3.167316 0.12439,0.235944 0.83954,0.01595 1.49303,-0.459233 z M 60.733519,33.017164 c -0.05148,-0.3021 -0.26574,-0.813673 -0.476,-1.13683 -0.445527,-0.684773 -2.000203,-2.222351 -3.166403,-3.131592 -0.990013,-0.771888 -3.272922,-2.797974 -3.477167,-3.086013 -0.08137,-0.11477 -0.440931,-0.451892 -0.799017,-0.749167 -0.82365,-0.683797 -1.727779,-0.745842 -2.188889,-0.150219 -0.565319,0.730255 -0.819605,1.333411 -0.732901,1.738391 0.118995,0.555818 2.553704,2.414765 4.911383,3.749948 1.05417,0.596998 2.782277,1.581204 3.840223,2.187136 1.057946,0.605919 1.981807,1.107512 2.053011,1.114646 0.07117,0.0069 0.08736,-0.234214 0.03576,-0.5363 z m 85.506121,-0.569481 c 0.63753,-0.224922 4.03072,-2.481896 4.46275,-2.968369 0.38083,-0.428842 -2.79538,-4.633089 -4.95871,-6.563703 -0.59843,-0.534031 -1.13481,-0.970983 -1.19197,-0.970983 -0.0572,0 -0.31533,0.182848 -0.57372,0.406341 -1.71912,1.486845 -2.67245,4.310371 -2.33803,6.92463 0.23252,1.817796 1.77901,3.35481 3.42964,3.408621 0.25156,0.0083 0.77807,-0.09828 1.17004,-0.236537 z M 118.9577,32.05451 c 0.30218,-0.354538 -0.11396,-2.50687 -0.77857,-4.026318 -0.31807,-0.727259 -1.07436,-2.061837 -1.68063,-2.965732 -1.54946,-2.310084 -2.6533,-4.12176 -3.80009,-6.236926 -1.18782,-2.190829 -2.16068,-3.735292 -3.14347,-4.990415 -0.89141,-1.138408 -1.16896,-1.331672 -1.56006,-1.086296 -0.20792,0.130454 -0.49177,0.124255 -0.9857,-0.02156 -0.76448,-0.22567 -0.62306,-0.322869 -1.56524,1.075784 -0.22084,0.32785 -0.87881,1.298598 -1.46214,2.157223 -1.07896,1.588133 -2.04174,3.04602 -2.57525,3.899545 -0.16276,0.260383 -0.4291,0.684815 -0.59187,0.943171 -0.16276,0.258358 -0.5458,0.874604 -0.851217,1.369428 -0.305402,0.494832 -0.605554,0.977746 -0.667004,1.07315 -1.05056,1.631249 -3.882489,7.7489 -3.882489,8.387119 0,0.100892 0.216403,0.227327 0.48089,0.281015 1.942165,0.394191 22.73865,0.521167 23.06284,0.140803 z M 71.539707,31.181348 c 1.053162,-1.434504 2.123454,-3.367495 2.123454,-3.835015 0,-0.312973 -1.892863,-3.921362 -2.391411,-4.558756 -0.684161,-0.874728 -1.899558,-1.542203 -1.899558,-1.04321 0,0.08067 -0.838998,1.114918 -1.864443,2.298342 -1.025433,1.183426 -2.140723,2.489236 -2.478407,2.901818 -0.723955,0.884514 -1.316324,1.969072 -1.164934,2.132884 0.05886,0.06377 0.73962,0.500549 1.512736,0.970723 1.498994,0.911591 3.102644,1.674504 4.069031,1.935754 1.175357,0.317742 1.308538,0.266693 2.093532,-0.80254 z m 17.807713,0.740577 c 0,-0.159138 -1.001068,-1.916181 -1.584901,-2.78174 -1.028024,-1.524108 -2.736399,-3.36887 -4.185715,-4.519858 -0.773118,-0.613986 -1.480412,-1.115924 -1.57177,-1.115443 -0.217248,0.0013 -1.918259,1.597588 -2.285654,2.145145 -0.452386,0.674189 -0.358765,1.059803 0.417236,1.718612 0.980938,0.832778 3.035966,2.214062 4.180006,2.809547 2.151862,1.120089 5.030798,2.117958 5.030798,1.743737 z m 37.86859,-0.347732 c 1.5817,-0.390054 2.82241,-0.901586 4.23227,-1.744933 1.49061,-0.891662 2.40029,-1.648802 3.32431,-2.766898 l 0.66583,-0.805687 -0.8138,-0.866494 c -0.95039,-1.01193 -1.87061,-1.79036 -2.30443,-1.949389 -0.21194,-0.07766 -0.46372,0.03298 -0.81379,0.357643 -0.58623,0.543694 -2.83728,3.397391 -4.08764,5.181964 -0.47202,0.673681 -1.07378,1.532314 -1.33726,1.908059 -0.26346,0.375746 -0.47985,0.741718 -0.48087,0.813274 -0.002,0.194807 0.45472,0.158686 1.61538,-0.127553 z m 52.98403,-1.048024 c 0.36496,-0.241086 0.84665,-0.521923 1.07044,-0.624075 0.22381,-0.102131 0.40691,-0.243616 0.40691,-0.314375 0,-0.07079 0.14982,-0.210009 0.33293,-0.30944 0.34954,-0.18983 1.41425,-1.283282 3.51415,-3.60902 0.69173,-0.76613 1.60728,-1.690065 2.03452,-2.053192 0.42724,-0.363127 0.77681,-0.773166 0.77681,-0.911193 0,-0.46025 -2.27621,-2.959219 -3.61592,-3.969773 -1.17299,-0.884804 -3.17363,-2.082543 -5.51975,-3.304547 l -0.77566,-0.404016 -0.43118,0.72706 c -0.23714,0.39988 -1.12686,1.546655 -1.97715,2.548384 -1.79317,2.112544 -2.18088,2.867854 -2.18088,4.248618 0,1.498722 0.4556,2.348777 2.39876,4.475572 0.92341,1.010692 1.93467,2.304394 2.25533,2.885296 0.31973,0.579184 0.68613,1.053055 0.81423,1.053055 0.12809,0 0.5315,-0.197254 0.89646,-0.438354 z M 36.017797,29.451177 c 0.225326,-0.450737 1.301338,-1.896484 2.391152,-3.212769 1.474584,-1.781027 2.079744,-2.644883 2.365616,-3.376911 l 0.384149,-0.983656 -0.334483,-0.681302 C 40.64027,20.821827 39.664058,19.237398 38.654852,17.6756 c -1.009194,-1.561805 -1.834897,-2.910062 -1.834897,-2.996128 0,-0.856167 -3.402281,0.783174 -6.288497,3.030035 -1.615597,1.257701 -4.216998,3.967714 -4.216998,4.393064 0,0.08096 0.382859,0.485691 0.850805,0.899262 0.467933,0.413585 1.378523,1.340132 2.023524,2.058991 1.639362,1.827087 1.567819,1.750858 2.382605,2.538815 1.400952,1.35481 3.188832,2.581807 3.865829,2.653061 0.09403,0.0096 0.355248,-0.350785 0.580574,-0.801523 z m 88.903933,-0.352393 c 0.57582,-0.64454 1.54271,-1.678793 2.14865,-2.298331 2.38016,-2.43361 3.78686,-4.334452 3.46193,-4.677952 -0.0686,-0.07244 -0.72394,-0.503641 -1.45637,-0.958112 -1.50139,-0.93162 -1.62476,-1.010305 -4.84694,-3.091242 -1.28236,-0.828167 -2.36576,-1.505757 -2.40755,-1.505757 -0.0417,0 -0.49073,-0.228783 -0.99765,-0.508395 -2.12336,-1.171253 -4.81857,-2.093498 -6.11811,-2.093498 H 114.167 l 0.0744,0.774468 c 0.0802,0.833897 0.63632,1.962222 1.55484,3.154559 0.30506,0.396012 1.26634,1.91812 2.13615,3.382457 0.86982,1.46433 1.68468,2.818551 1.81082,3.009357 0.12613,0.190808 0.70456,1.088462 1.28538,1.994776 1.33574,2.084296 2.65532,3.989577 2.76314,3.989577 0.0456,0 0.55412,-0.527351 1.12994,-1.171907 z M 92.985779,27.295807 c 0.969295,-1.445377 1.830418,-2.713801 1.913604,-2.818716 0.08313,-0.104871 0.282929,-0.394026 0.443887,-0.642452 3.078423,-4.75151 3.197676,-4.949209 4.454247,-7.384936 0.638473,-1.237593 1.387083,-2.9133 1.387083,-3.104857 0,-0.374969 -4.628161,1.350911 -7.102301,2.648511 -1.617075,0.84809 -3.17719,1.76536 -4.686432,2.755373 -2.234791,1.465943 -5.218921,3.560235 -5.304652,3.722838 -0.07668,0.145449 2.800438,3.452672 4.779033,5.493479 0.653735,0.674286 2.125001,1.958722 2.243632,1.958722 0.06027,0 0.902593,-1.182586 1.871899,-2.627962 z m 61.910001,0.147922 c 0.36621,-0.407743 1.47698,-1.500521 2.46835,-2.428386 0.99139,-0.927867 2.04394,-2.017716 2.33903,-2.421872 l 0.53653,-0.734821 -0.41549,-0.394819 c -0.61405,-0.583505 -4.93273,-3.73126 -6.48205,-4.724571 -4.39672,-2.818869 -4.39226,-2.816364 -4.58394,-2.576121 -0.47323,0.593136 -1.30643,2.22193 -2.06467,4.036216 l -0.82753,1.980035 2.4222,2.794926 c 1.33221,1.53722 2.81459,3.153212 3.29417,3.591098 0.80654,0.736399 2.15227,1.606219 2.4996,1.615635 0.0814,0.0014 0.4476,-0.329589 0.8138,-0.73732 z M 62.4713,27.065551 c 0.841882,-0.466901 2.109266,-1.917665 3.564387,-4.080157 0.481464,-0.715533 1.337287,-1.858649 1.90182,-2.540278 l 1.02643,-1.23933 -0.44221,-0.755455 c -0.243217,-0.415504 -0.692813,-1.340882 -0.99911,-2.056405 -0.691958,-1.616495 -1.406616,-2.912127 -1.672169,-3.03159 -0.110916,-0.04989 -1.2664,0.650809 -2.567668,1.55715 -1.301269,0.906347 -2.422962,1.647904 -2.492654,1.647904 -0.06965,0 -0.214703,0.100216 -0.322242,0.222679 -0.107516,0.122467 -0.528445,0.447804 -0.935352,0.722951 -1.1265,0.761748 -3.635063,2.761064 -4.2143,3.358784 l -0.515185,0.531635 1.107049,1.357583 c 0.608876,0.746679 1.506545,1.890396 1.994833,2.541618 1.615691,2.154807 2.938721,2.665596 4.566371,1.762911 z m 104.97562,-1.434902 c 0.14854,-0.16696 0.78243,-0.837356 1.40864,-1.489759 0.62621,-0.652417 1.24262,-1.422092 1.3698,-1.710392 l 0.23122,-0.524205 -0.82063,-0.978221 c -0.45134,-0.53802 -0.98297,-1.188612 -1.18139,-1.445749 -0.38495,-0.498842 -1.36399,-1.180341 -1.69569,-1.180341 -0.20671,0 -0.75208,0.665848 -0.76081,0.928893 -0.002,0.08158 -0.40905,0.940202 -0.90301,1.908057 l -0.89809,1.759732 1.33413,1.517771 c 0.73377,0.834771 1.40425,1.517771 1.48995,1.517771 0.0857,0 0.27735,-0.136626 0.42588,-0.303557 z M 48.879083,24.575078 c 0.569657,-0.55381 1.165684,-1.290416 1.324483,-1.636856 l 0.288733,-0.629918 -0.325724,-0.764575 c -0.179142,-0.420518 -0.325725,-0.815003 -0.325725,-0.876622 0,-0.367645 -1.177362,-2.22644 -1.565392,-2.471416 -0.461004,-0.291045 -0.467593,-0.289152 -1.330862,0.382586 -1.052809,0.819231 -2.10603,2.041057 -2.500508,2.900811 l -0.291981,0.636375 0.809862,0.976262 c 0.880937,1.061948 2.442624,2.497126 2.71268,2.492933 0.09274,-0.0013 0.634764,-0.455755 1.204434,-1.00958 z m 90.694757,-0.866109 c 1.9047,-2.110131 2.28812,-2.597545 2.37968,-3.025243 0.21627,-1.010141 -0.22902,-1.38282 -2.32133,-1.94277 -0.84171,-0.225269 -2.06307,-0.694118 -2.71412,-1.041885 -3.27297,-1.748341 -3.64353,-1.938189 -5.0524,-2.588546 -3.4297,-1.583201 -5.13256,-2.000612 -7.6479,-1.874673 -0.74882,0.0375 -0.87293,0.29665 -0.30891,0.645007 0.15635,0.09656 0.75034,0.49428 1.32,0.883841 0.56967,0.389554 1.53514,1.013064 2.14548,1.38558 0.61037,0.372509 1.14303,0.716323 1.18373,0.764024 0.0407,0.04772 0.4069,0.285655 0.81381,0.528783 0.7646,0.456858 3.32521,2.101398 3.84708,2.470767 0.16276,0.115197 0.58225,0.424111 0.93219,0.686466 0.34995,0.262357 0.66424,0.477012 0.69843,0.477012 0.12289,0 2.23343,1.739687 3.03026,2.497803 0.44759,0.425831 0.87698,0.779585 0.95418,0.786086 0.0772,0.0069 0.41012,-0.286994 0.73982,-0.652252 z M 77.258653,23.566791 c 0.421739,-0.254625 1.3872,-1.034375 1.583272,-1.278733 0.04068,-0.05072 0.37124,-0.363388 0.734542,-0.694825 0.363303,-0.331449 0.829396,-0.786478 1.035751,-1.011184 0.625667,-0.681287 3.129822,-2.55941 4.074319,-3.055741 0.904281,-0.475201 1.032186,-0.540347 2.071501,-1.055179 1.676589,-0.830496 3.617618,-2.038456 4.143014,-2.578305 l 0.591853,-0.608143 -0.96267,-0.0066 c -2.096018,-0.01416 -6.020894,0.686932 -8.357843,1.492993 -2.632212,0.907894 -7.377584,3.492769 -8.916126,4.856745 -0.696308,0.617297 -0.634612,1.081792 0.270336,2.035618 1.024859,1.080195 2.502526,2.189164 2.917019,2.189164 0.187819,0 0.554591,-0.128652 0.815032,-0.285895 z m 95.349567,-3.598024 c 0.11912,-0.240708 1.9865,-2.706001 2.43273,-3.211694 0.13415,-0.152026 0.49315,-0.77677 0.79779,-1.388307 l 0.55387,-1.111891 -0.50187,-0.483016 c -0.49971,-0.48095 -2.17213,-1.512326 -3.01725,-1.860715 -1.1363,-0.46843 -2.05323,-0.563177 -2.81172,-0.290547 -0.4067,0.146178 -0.84984,0.365731 -0.98478,0.487887 -0.48399,0.438128 -0.90385,1.680781 -0.97792,2.894361 -0.0889,1.456771 0.021,2.025112 0.4204,2.173716 0.1684,0.06267 0.72822,0.608688 1.24404,1.213388 1.34743,1.579585 2.11346,2.199017 2.45471,1.984918 0.14997,-0.09409 0.32548,-0.277741 0.39,-0.4081 z M 44.033394,18.836405 c 2.271818,-1.999951 2.794706,-2.879963 2.654888,-4.468168 -0.0904,-1.026353 -0.864815,-3.164604 -1.321564,-3.648826 -0.19898,-0.21095 -0.516697,-0.305933 -0.995651,-0.297653 -0.564031,0.0097 -1.125305,0.258763 -2.832566,1.256716 -1.171042,0.684508 -2.345554,1.293738 -2.610041,1.353837 -0.32542,0.07395 -0.480889,0.208132 -0.480889,0.415051 0,0.452582 1.092369,2.245347 3.275137,5.375026 0.166339,0.238505 0.373773,0.609277 0.460946,0.823932 0.08711,0.214655 0.232279,0.390282 0.322442,0.390282 0.09016,0 0.777455,-0.540085 1.527298,-1.200197 z m 119.003516,-0.05735 c 0.51965,-0.413314 0.85484,-1.241973 0.87346,-2.159379 0.0106,-0.528993 -0.0284,-0.568512 -0.83953,-0.847062 -1.10338,-0.378915 -2.10284,-0.818464 -4.99382,-2.196164 -2.85135,-1.358819 -4.17421,-1.801641 -5.8613,-1.962026 -1.43048,-0.135992 -1.79002,0.06353 -0.9869,0.547632 0.26715,0.161034 1.61551,1.198611 2.99637,2.305727 5.55079,4.450403 7.46142,5.385208 8.81172,4.311272 z M 54.310047,18.424063 c 1.165015,-0.498193 2.614813,-1.492325 4.334701,-2.972318 3.190497,-2.745474 4.769443,-4.05755 5.252747,-4.36495 l 0.517881,-0.329398 -0.457276,-0.05271 c -0.630344,-0.07267 -3.27631,0.578734 -4.795471,1.18059 -0.691735,0.274051 -2.772535,1.205482 -4.623986,2.069844 -1.851451,0.864363 -3.475162,1.571566 -3.608249,1.571566 -0.201091,0 -0.226804,0.129808 -0.152175,0.768115 0.172705,1.47714 1.02331,2.52433 2.05219,2.526472 0.301466,6.56e-4 0.967314,-0.17811 1.479638,-0.397197 z m 90.346423,-1.471995 c 0.13842,-0.360867 0.46488,-1.044821 0.72544,-1.519899 0.68738,-1.253314 0.98784,-2.14986 0.75035,-2.239014 -0.58488,-0.219585 -7.20244,-0.648889 -8.62232,-0.559374 -2.13737,0.134755 -3.3543,0.591085 -2.57491,0.965534 0.19549,0.09392 1.3209,0.671198 2.50092,1.282843 1.18001,0.611637 2.51169,1.275171 2.95929,1.474518 0.44759,0.19934 0.94698,0.421739 1.10973,0.494214 0.63041,0.280699 2.09113,0.712153 2.48565,0.73418 0.34413,0.01921 0.4567,-0.0878 0.66585,-0.633002 z m -72.990827,0.03494 c 0.244144,-0.149664 1.730182,-0.774775 3.302315,-1.389119 1.572134,-0.614352 3.134806,-1.282305 3.47263,-1.484339 0.724775,-0.433468 1.4371,-1.03004 1.4371,-1.203582 0,-0.427252 -5.546124,-0.794824 -8.967447,-0.594322 l -2.162554,0.126728 0.09392,0.688853 c 0.164298,1.204466 0.796601,2.76216 1.405067,3.461371 0.649749,0.746659 0.783622,0.783869 1.418927,0.394406 z m 94.559247,-3.585213 c 0.69486,-1.540569 0.77841,-1.763438 0.82902,-2.211609 0.0482,-0.42697 0.0217,-0.438567 -1.72661,-0.753286 -1.10146,-0.198284 -2.70251,-0.33 -4.217,-0.346921 -2.17712,-0.02433 -2.4863,0.0084 -2.85591,0.302058 -0.22799,0.18114 -0.36115,0.386985 -0.29592,0.457434 0.0652,0.07046 0.65123,0.327485 1.30227,0.571182 1.24252,0.465105 2.99552,1.243473 5.10479,2.266641 0.69172,0.335553 1.30064,0.61348 1.35316,0.617631 0.0525,0.004 0.2803,-0.402268 0.5062,-0.90313 z M 50.802618,12.904627 c 0.325525,-0.105329 0.725034,-0.253131 0.887797,-0.328447 0.16275,-0.07531 1.094936,-0.428679 2.071501,-0.785257 1.697646,-0.619872 4.153085,-1.730372 4.414804,-1.9966477 0.176563,-0.1796405 -5.768343,-0.4049813 -7.448085,-0.2823191 -0.773116,0.056447 -1.72194,0.2303161 -2.108492,0.3863619 -0.617905,0.2494339 -0.702828,0.3435779 -0.702828,0.7790959 0,0.272459 0.199743,0.842354 0.443887,1.266432 0.244143,0.424078 0.443897,0.970655 0.443897,1.214614 v 0.443563 l 0.702828,-0.252948 c 0.386564,-0.139116 0.969165,-0.339127 1.294691,-0.444448 z"
       id="path5734" />
  </g>
</svg>
