<?xml version="1.0" encoding="UTF-8" standalone="no"?>
<svg
   xmlns:dc="http://purl.org/dc/elements/1.1/"
   xmlns:cc="http://creativecommons.org/ns#"
   xmlns:rdf="http://www.w3.org/1999/02/22-rdf-syntax-ns#"
   xmlns:svg="http://www.w3.org/2000/svg"
   xmlns="http://www.w3.org/2000/svg"
   xmlns:sodipodi="http://sodipodi.sourceforge.net/DTD/sodipodi-0.dtd"
   xmlns:inkscape="http://www.inkscape.org/namespaces/inkscape"
   width="210mm"
   height="45mm"
   viewBox="0 0 210 45"
   version="1.1"
   id="svg4027"
   sodipodi:docname="Mesh_dep_grosseelem.svg"
   inkscape:version="1.0.2 (394de47547, 2021-03-26)">
  <defs
     id="defs4021">
    <symbol
       id="Buffer_Small">
      <title
         id="title4683">Buffer Small</title>
      <path
         d="M 9.9778537,10.583333 16.592437,13.229167 9.9778537,15.875 Z"
         id="path4685"
         style="stroke-width:0.264583" />
    </symbol>
  </defs>
  <sodipodi:namedview
     id="base"
     pagecolor="#ffffff"
     bordercolor="#666666"
     borderopacity="1.0"
     inkscape:pageopacity="0.0"
     inkscape:pageshadow="2"
     inkscape:zoom="0.98768416"
     inkscape:cx="316.3281"
     inkscape:cy="58.09142"
     inkscape:document-units="mm"
     inkscape:current-layer="layer1"
     inkscape:document-rotation="0"
     showgrid="false"
     inkscape:window-width="1920"
     inkscape:window-height="1043"
     inkscape:window-x="1920"
     inkscape:window-y="0"
     inkscape:window-maximized="1" />
  <metadata
     id="metadata4024">
    <rdf:RDF>
      <cc:Work
         rdf:about="">
        <dc:format>image/svg+xml</dc:format>
        <dc:type
           rdf:resource="http://purl.org/dc/dcmitype/StillImage" />
        <dc:title></dc:title>
      </cc:Work>
    </rdf:RDF>
  </metadata>
  <g
     inkscape:label="Ebene 1"
     inkscape:groupmode="layer"
     id="layer1">
    <path
       style="fill:#000000;stroke-width:0.165941"
       d="M 72.434655,42.177857 C 46.095391,42.060732 6.8780948,41.716679 6.7791441,41.601861 6.6356115,41.435316 6.3878711,38.259073 6.3729457,36.394064 c -0.020783,-2.59706 0.2993228,-5.707356 0.6190818,-6.015278 0.1762121,-0.169694 0.4202058,-0.170965 1.1094097,-0.0058 1.6914609,0.405377 1.7619369,0.337662 1.863796,-1.790862 l 0.079523,-1.661726 1.171663,-0.0966 c 0.729598,-0.06017 1.325351,-0.213458 1.579003,-0.406302 0.380021,-0.28892 0.407342,-0.398911 0.407342,-1.639895 0,-1.551489 0.119561,-1.700278 1.366287,-1.700278 1.139718,0 1.514227,-0.223947 1.70457,-1.01929 0.08935,-0.37335 0.162844,-1.06618 0.163316,-1.539622 0.0014,-1.450795 0.110649,-1.552296 1.670008,-1.552296 0.844768,0 1.419415,-0.08031 1.535073,-0.214498 0.107879,-0.125176 0.184859,-0.72555 0.184859,-1.441737 0,-1.800323 0.08883,-1.918731 1.439442,-1.918731 1.492407,0 1.602242,-0.118955 1.668779,-1.807374 0.0727,-1.844822 0.164383,-1.946338 1.757768,-1.946338 1.53577,0 1.694984,-0.17753 1.556412,-1.7354348 -0.167651,-1.884826 0.356917,-2.454085 2.158134,-2.341999 l 0.893487,0.0556 0.045,-1.602835 c 0.02475,-0.88156 0.110591,-1.649875 0.190764,-1.707369 0.475219,-0.340789 108.493177,-0.100089 131.784347,0.293658 18.96363,0.320589 19.02965,0.322666 19.18249,0.603446 0.0802,0.147465 0.14703,0.893497 0.14832,1.657844 0.003,1.334712 0.0184,1.39679 0.40701,1.568244 0.22256,0.09819 0.9158,0.228654 1.54049,0.289926 l 1.13583,0.111404 v 1.5633818 c 0,1.834824 0.0253,1.86312 1.49974,1.679902 1.1213,-0.139338 1.81362,0.107828 1.94959,0.696042 0.0492,0.213153 0.0906,0.888424 0.0917,1.500604 0.003,1.365176 0.20237,1.561343 1.76698,1.734922 0.58942,0.06539 1.16133,0.205237 1.27092,0.310765 0.13162,0.126748 0.19924,0.66237 0.19924,1.578086 0,0.920472 0.0674,1.451111 0.20059,1.579373 0.1103,0.106241 0.82085,0.216632 1.579,0.245321 l 1.37842,0.05216 0.0447,1.692019 c 0.0285,1.076997 0.11246,1.74197 0.23108,1.829434 0.10248,0.07559 0.79289,0.138645 1.53426,0.140149 l 1.34793,0.0028 v 1.491657 c 0,1.829258 0.11854,1.988919 1.60145,2.156966 1.49475,0.169393 1.63358,0.286058 1.63358,1.372837 0,0.493721 0.0777,1.25596 0.17279,1.69387 0.20942,0.965075 0.43044,1.059716 2.15457,0.922593 l 1.21577,-0.09669 v 4.571216 c 0,2.553186 -0.0757,5.075519 -0.17144,5.713561 l -0.17145,1.142345 -51.85865,-0.05236 C 122.88369,42.321989 87.346608,42.244153 72.434655,42.177846 Z M 179.88393,34.871053 c 3.51617,-0.103638 7.24223,-0.233747 8.28013,-0.289137 l 1.88711,-0.100702 v -1.4672 c 0,-0.972989 -0.0724,-1.582068 -0.21491,-1.808227 -0.20541,-0.325955 -0.25912,-0.328752 -1.21509,-0.06338 -0.85507,0.237394 -1.0586,0.242183 -1.40262,0.03303 -0.38509,-0.234125 -0.40241,-0.309141 -0.40241,-1.743679 0,-0.824468 -0.0421,-1.626264 -0.0935,-1.781774 -0.11048,-0.334089 -0.71777,-0.365917 -1.6705,-0.08755 -1.13712,0.332233 -1.29707,0.112842 -1.34974,-1.851331 l -0.0442,-1.650701 -1.07834,-0.101498 c -0.5931,-0.05581 -1.30365,-0.238869 -1.57901,-0.406775 l -0.50066,-0.305284 v -1.495644 c 0,-1.710311 -0.002,-1.712644 -1.32696,-1.712644 -0.4618,0 -1.08003,-0.11655 -1.37385,-0.259 l -0.53422,-0.259003 v -1.534591 -1.534614 l -2.73437,0.02753 c -1.50391,0.01514 -2.87302,-0.0022 -3.04247,-0.03856 -0.28375,-0.06086 -0.31419,0.05402 -0.38513,1.453279 -0.0424,0.835648 -0.12769,1.60974 -0.18962,1.720204 -0.0625,0.111496 -0.70577,0.236964 -1.44614,0.282053 -1.67275,0.101875 -1.82026,0.266715 -1.67614,1.873157 0.15425,1.71944 0.0601,1.821553 -1.73566,1.882778 l -1.49953,0.05112 -0.0918,1.557271 c -0.0504,0.856497 -0.17814,1.677949 -0.28364,1.825446 -0.1374,0.192102 -0.57021,0.282761 -1.52567,0.319588 l -1.33389,0.0514 -0.0922,1.429987 c -0.0507,0.786492 -0.14291,1.56513 -0.20491,1.730305 -0.18168,0.483988 -0.86615,0.664815 -1.78388,0.471274 -0.87611,-0.184772 -0.98898,-0.10943 -1.25424,0.837144 -0.17538,0.625833 -0.14154,2.384371 0.0486,2.520656 0.1795,0.128733 9.23666,0.525802 13.29989,0.58307 1.18618,0.01668 5.03356,-0.05438 8.54973,-0.158025 z M 49.599773,33.991497 c 1.636435,-0.09572 2.666854,-0.231637 2.811397,-0.370828 0.166192,-0.160046 0.22817,-0.602209 0.22817,-1.627827 v -1.408099 l -1.347929,-0.0027 c -0.741362,-0.0014 -1.424885,-0.06182 -1.51894,-0.13406 -0.09405,-0.07222 -0.205059,-0.697431 -0.246678,-1.389337 -0.11784,-1.959041 -0.193463,-2.048832 -1.725558,-2.048832 -0.974827,0 -1.333157,-0.06714 -1.484019,-0.27806 -0.109386,-0.152936 -0.230849,-0.918783 -0.269918,-1.70189 -0.03907,-0.783104 -0.132539,-1.467934 -0.207715,-1.521845 -0.07517,-0.05392 -0.689769,-0.162712 -1.365768,-0.241787 -0.675997,-0.07907 -1.33338,-0.244206 -1.460853,-0.36696 -0.174476,-0.168016 -0.231766,-0.61546 -0.231766,-1.810036 v -1.586837 h -1.357 c -0.857629,0 -1.455984,-0.08399 -1.625983,-0.228222 -0.357631,-0.303433 -0.560104,-1.41748 -0.451321,-2.483244 l 0.08814,-0.8635 h -3.025419 -3.025415 v 1.441738 c 0,2.054722 -0.05626,2.133228 -1.528846,2.133228 -1.679254,0 -1.904154,0.225188 -1.986843,1.98941 -0.03396,0.724587 -0.131837,1.417978 -0.217507,1.540866 -0.103447,0.148398 -0.615044,0.223436 -1.523337,0.223436 h -1.36758 v 0.828317 c 0,0.979363 -0.269697,2.174373 -0.589625,2.612587 -0.18165,0.248811 -0.475619,0.31281 -1.43689,0.31281 H 23.524053 V 28.3388 c 0,0.730936 -0.06761,1.535304 -0.150236,1.787484 -0.145178,0.443067 -0.194801,0.458506 -1.473595,0.458506 -1.84365,0 -1.919299,0.06676 -1.919299,1.693845 0,0.842407 0.06774,1.372356 0.186279,1.457364 0.102456,0.07347 1.436907,0.18544 2.965448,0.248824 4.195891,0.173977 23.523842,0.178887 26.467123,0.0069 z M 150.52497,31.012489 c 0.16231,-0.07226 0.24367,-0.33252 0.24367,-0.779419 0,-1.199922 0.18257,-2.25699 0.46483,-2.691159 0.21677,-0.333473 0.40415,-0.417623 0.86859,-0.390109 0.3257,0.01929 0.95615,-0.01054 1.40095,-0.06633 l 0.80876,-0.101412 v -3.368745 c 0,-1.852805 0.0421,-3.49597 0.0935,-3.651477 0.0753,-0.22782 0.35364,-0.282743 1.43265,-0.282743 0.83617,0 1.40859,-0.08056 1.52401,-0.214498 0.11168,-0.129579 0.18487,-0.757794 0.18487,-1.586849 0,-0.883149 0.0686,-1.43622 0.19256,-1.551529 0.10591,-0.09855 0.72388,-0.235273 1.37328,-0.303831 1.63096,-0.172177 1.73696,-0.287838 1.60215,-1.748338 -0.1715,-1.858341 0.0384,-1.769842 -3.70716,-1.562936 -2.24068,0.123773 -5.05804,0.117095 -9.16594,-0.02174 -5.73887,-0.193939 -17.64794,-0.11732 -18.83929,0.121207 l -0.58448,0.117021 0.0979,0.828577 c 0.0539,0.455717 0.16355,1.130217 0.24379,1.498884 l 0.14592,0.670306 h 1.10601 c 1.00608,0 1.13779,0.04289 1.45753,0.474673 0.29639,0.400229 0.35151,0.678904 0.35151,1.776933 0,0.848508 0.0671,1.350694 0.19256,1.441265 0.10591,0.07646 1.37104,0.141527 2.8114,0.14461 1.7237,0.0038 2.76364,0.08046 3.04247,0.224617 0.4093,0.211599 0.42373,0.266045 0.42601,1.608735 8.2e-4,0.764347 0.0556,1.486883 0.12061,1.605633 0.0742,0.135422 0.63321,0.235373 1.49962,0.268122 l 1.38136,0.05221 0.0796,1.661732 c 0.0572,1.194878 0.14335,1.707501 0.3067,1.824646 0.12496,0.0896 1.3742,0.146192 2.7761,0.125753 3.37351,-0.04918 3.38476,-0.04191 3.38476,2.188201 0,1.365414 0.0383,1.603122 0.2696,1.673253 0.41541,0.125963 2.1402,0.136483 2.41367,0.01472 z m -23.04189,-0.2279 c 0.22269,-0.163769 0.47901,-2.129672 0.36662,-2.811858 -0.0377,-0.228331 -0.21671,-0.474286 -0.39799,-0.54657 -0.18129,-0.07229 -1.39135,-0.115117 -2.68903,-0.09517 -1.36116,0.02091 -2.48262,-0.04027 -2.65061,-0.144582 -0.37032,-0.229972 -0.6108,-1.230174 -0.61191,-2.545037 l -5.8e-4,-1.027801 h -1.07522 c -1.31286,0 -2.27818,-0.398408 -2.40686,-0.993366 -0.0496,-0.22935 -0.0117,-0.842452 0.0845,-1.362447 0.23156,-1.252871 0.0619,-1.3979 -1.63556,-1.3979 -1.26891,0 -1.27761,-0.0031 -1.3659,-0.491557 -0.0488,-0.270357 -0.15417,-0.828814 -0.23401,-1.241016 -0.0798,-0.412204 -0.14515,-1.046342 -0.14515,-1.409197 V 16.05835 l -2.55271,0.129727 c -3.48171,0.176934 -3.42321,0.210811 -3.69158,-2.137536 -0.17484,-1.529941 -0.0367,-1.458788 -3.03126,-1.561856 -1.4648,-0.05042 -2.76725,-0.12181 -2.89434,-0.158648 -0.18514,-0.05366 -0.25086,0.217291 -0.33063,1.363006 -0.0548,0.786492 -0.14872,1.60753 -0.2088,1.824528 -0.18651,0.673505 -0.90974,0.807852 -3.596924,0.668158 l -2.441697,-0.126936 -0.254103,0.420945 c -0.174683,0.289378 -0.254094,0.795023 -0.254094,1.61779 0,1.781921 0.01637,1.761888 -1.441438,1.765067 -0.689937,0.0014 -1.357423,0.07831 -1.483297,0.170651 -0.174588,0.128088 -0.21734,0.457717 -0.18023,1.38977 0.04011,1.007893 -0.0049,1.298849 -0.258007,1.66152 -0.280417,0.402056 -0.433,0.444959 -1.783899,0.501602 l -1.477252,0.06194 v 1.399963 c 0,0.969513 -0.06712,1.477828 -0.218245,1.653203 -0.153564,0.178183 -0.804169,0.287375 -2.195202,0.36842 -1.087325,0.06335 -2.392887,0.21656 -2.901251,0.340461 l -0.924291,0.225278 -0.04505,1.18109 -0.04505,1.181088 1.013895,0.120533 c 2.751148,0.327054 9.425705,0.461506 24.109185,0.485648 13.37496,0.02198 19.0219,0.110115 19.56425,0.305294 0.0424,0.01527 0.17014,-0.04074 0.28396,-0.124463 z m -65.26122,-0.60203 c 0.171656,-0.156926 0.264761,-0.627028 0.312776,-1.579309 0.03764,-0.745733 0.118264,-1.449554 0.179249,-1.564048 0.07824,-0.146847 0.993141,-0.208173 3.105752,-0.208173 1.64717,0 3.000919,-0.06033 3.008323,-0.134061 0.0074,-0.07374 0.02471,-0.785331 0.03855,-1.581328 0.03443,-1.98903 0.08202,-2.038324 1.969524,-2.038324 h 1.521634 v -1.349487 c 0,-0.886502 0.08443,-1.538922 0.246074,-1.901639 l 0.246074,-0.552151 1.563998,0.11536 c 0.860209,0.06345 2.11233,0.166441 2.7825,0.228869 1.544372,0.14387 1.631416,0.0369 1.631416,-2.005049 0,-0.954792 0.06696,-1.526313 0.192558,-1.644607 0.105911,-0.09972 0.720194,-0.211109 1.365074,-0.247544 0.682482,-0.03856 1.278013,-0.167846 1.424954,-0.309346 0.289938,-0.279206 0.353493,-2.012656 0.101934,-2.780373 l -0.150508,-0.459338 -15.986134,0.04552 -15.986142,0.04552 0.02888,0.44687 c 0.01589,0.245779 0.08521,0.929491 0.154048,1.519361 l 0.125167,1.072489 1.331092,0.05136 1.331093,0.05137 0.170891,0.787473 c 0.09398,0.433107 0.170882,1.218385 0.170882,1.745057 0,0.526674 0.08319,1.05411 0.184867,1.172084 0.103218,0.119774 0.598306,0.214499 1.121082,0.214499 1.596225,0 1.582479,-0.03214 1.644782,3.847912 0.0607,3.780114 0.04151,3.727521 1.308643,3.593935 0.921128,-0.09711 1.891324,0.115372 2.076817,0.454835 0.07107,0.13 0.130222,0.815532 0.131516,1.523406 0.0016,1.035294 0.0551,1.322679 0.271942,1.469236 0.383075,0.258894 2.088101,0.237145 2.380722,-0.03037 z"
       id="path5094" />
  </g>
</svg>
