<?xml version="1.0" encoding="UTF-8" standalone="no"?>
<svg
   xmlns:dc="http://purl.org/dc/elements/1.1/"
   xmlns:cc="http://creativecommons.org/ns#"
   xmlns:rdf="http://www.w3.org/1999/02/22-rdf-syntax-ns#"
   xmlns:svg="http://www.w3.org/2000/svg"
   xmlns="http://www.w3.org/2000/svg"
   xmlns:xlink="http://www.w3.org/1999/xlink"
   xmlns:sodipodi="http://sodipodi.sourceforge.net/DTD/sodipodi-0.dtd"
   xmlns:inkscape="http://www.inkscape.org/namespaces/inkscape"
   width="110mm"
   height="120mm"
   viewBox="0 0 110 120"
   version="1.1"
   id="svg8"
   sodipodi:docname="Model_Seilbahnmast_beschriftet.svg"
   inkscape:version="1.0.2 (394de47547, 2021-03-26)">
  <defs
     id="defs2">
    <rect
       x="121.06181"
       y="5.0927877"
       width="36.252953"
       height="32.648708"
       id="rect1723" />
    <rect
       x="-18.37995"
       y="-9.1562843"
       width="25.014074"
       height="29.306055"
       id="rect1717" />
    <rect
       x="47.105007"
       y="2.3125675"
       width="9.7545547"
       height="15.361054"
       id="rect1333" />
    <inkscape:perspective
       sodipodi:type="inkscape:persp3d"
       inkscape:vp_x="0 : 168.5 : 1"
       inkscape:vp_y="0 : 1000 : 0"
       inkscape:vp_z="210 : -28.500005 : 1"
       inkscape:persp3d-origin="105 : -78.000003 : 1"
       id="perspective1047" />
    <symbol
       id="Buffer_Small">
      <title
         id="title1183">Buffer Small</title>
      <path
         d="M 9.9778537,10.583333 16.592437,13.229167 9.9778537,15.875 Z"
         id="path1185"
         style="stroke-width:0.264583" />
    </symbol>
    <rect
       x="47.105007"
       y="2.3125675"
       width="9.7545547"
       height="15.361054"
       id="rect1333-5" />
    <rect
       x="47.105007"
       y="2.3125675"
       width="9.7545547"
       height="15.361054"
       id="rect1374" />
    <rect
       x="47.105007"
       y="2.3125675"
       width="9.7545547"
       height="15.361054"
       id="rect1333-5-8" />
    <rect
       x="47.105007"
       y="2.3125675"
       width="9.7545547"
       height="15.361054"
       id="rect1438" />
    <rect
       x="47.105007"
       y="2.3125675"
       width="9.7545547"
       height="15.361054"
       id="rect1333-5-8-9" />
    <rect
       x="47.105007"
       y="2.3125675"
       width="9.7545547"
       height="15.361054"
       id="rect1559" />
    <rect
       x="47.105007"
       y="2.3125675"
       width="9.7545547"
       height="15.361054"
       id="rect1333-5-8-9-2" />
    <rect
       x="47.105007"
       y="2.3125675"
       width="9.7545547"
       height="15.361054"
       id="rect1596" />
    <rect
       x="47.105007"
       y="2.3125675"
       width="9.7545547"
       height="15.361054"
       id="rect1333-5-8-9-2-1" />
    <rect
       x="47.105007"
       y="2.3125675"
       width="9.7545547"
       height="15.361054"
       id="rect1671" />
    <rect
       x="47.105007"
       y="2.3125675"
       width="9.7545547"
       height="15.361054"
       id="rect1333-9" />
    <rect
       x="47.105007"
       y="2.3125675"
       width="9.7545547"
       height="15.361054"
       id="rect1736" />
    <rect
       x="47.105007"
       y="2.3125675"
       width="9.7545547"
       height="15.361054"
       id="rect1333-5-8-1" />
    <rect
       x="47.105007"
       y="2.3125675"
       width="9.7545547"
       height="15.361054"
       id="rect1165" />
  </defs>
  <sodipodi:namedview
     id="base"
     pagecolor="#ffffff"
     bordercolor="#666666"
     borderopacity="1.0"
     inkscape:pageopacity="0.0"
     inkscape:pageshadow="2"
     inkscape:zoom="0.72425249"
     inkscape:cx="200.94229"
     inkscape:cy="-63.205873"
     inkscape:document-units="mm"
     inkscape:current-layer="layer1"
     inkscape:document-rotation="0"
     showgrid="false"
     inkscape:window-width="1920"
     inkscape:window-height="1043"
     inkscape:window-x="1920"
     inkscape:window-y="0"
     inkscape:window-maximized="1" />
  <metadata
     id="metadata5">
    <rdf:RDF>
      <cc:Work
         rdf:about="">
        <dc:format>image/svg+xml</dc:format>
        <dc:type
           rdf:resource="http://purl.org/dc/dcmitype/StillImage" />
        <dc:title></dc:title>
      </cc:Work>
    </rdf:RDF>
  </metadata>
  <g
     inkscape:label="Ebene 1"
     inkscape:groupmode="layer"
     id="layer1">
    <rect
       style="opacity:0.998;fill:#000000;fill-opacity:0.49;stroke:none;stroke-width:0.2;stroke-linejoin:round;stroke-miterlimit:4;stroke-dasharray:none;paint-order:stroke fill markers"
       id="rect873"
       width="20.200834"
       height="70.045029"
       x="22.224674"
       y="36.543575" />
    <rect
       style="opacity:0.998;fill:#000000;fill-opacity:0.494154;stroke:none;stroke-width:0.198093;stroke-linejoin:round;stroke-miterlimit:4;stroke-dasharray:none;paint-order:stroke fill markers"
       id="rect875"
       width="3.2667124"
       height="10.121963"
       x="30.83123"
       y="26.421946" />
    <rect
       style="opacity:0.998;fill:#000000;fill-opacity:0.49;stroke:none;stroke-width:0.2;stroke-linejoin:round;stroke-miterlimit:4;stroke-dasharray:none;paint-order:stroke fill markers"
       id="rect879"
       width="7.086607"
       height="4.0370622"
       x="28.918133"
       y="22.385517" />
    <rect
       style="opacity:0.998;fill:#291512;fill-opacity:1;stroke:none;stroke-width:0.177807;stroke-linejoin:round;stroke-miterlimit:4;stroke-dasharray:none;paint-order:stroke fill markers"
       id="rect881"
       width="12.44278"
       height="0.78017735"
       x="23.498671"
       y="25.551773"
       transform="matrix(0.9983095,-0.05812182,0.09290643,0.99567484,0,0)" />
    <circle
       style="opacity:0.998;fill:#291512;fill-opacity:1;stroke:none;stroke-width:0.201951;stroke-linejoin:round;stroke-miterlimit:4;stroke-dasharray:none;paint-order:stroke fill markers"
       id="path883"
       cx="26.054195"
       cy="24.430841"
       r="1" />
    <circle
       style="opacity:0.998;fill:#291512;fill-opacity:1;stroke:none;stroke-width:0.201951;stroke-linejoin:round;stroke-miterlimit:4;stroke-dasharray:none;paint-order:stroke fill markers"
       id="path883-3"
       cx="27.941093"
       cy="24.31374"
       r="1" />
    <circle
       style="opacity:0.998;fill:#291512;fill-opacity:1;stroke:none;stroke-width:0.201951;stroke-linejoin:round;stroke-miterlimit:4;stroke-dasharray:none;paint-order:stroke fill markers"
       id="path883-6"
       cx="31.353386"
       cy="24.099041"
       r="1" />
    <circle
       style="opacity:0.998;fill:#291512;fill-opacity:1;stroke:none;stroke-width:0.201951;stroke-linejoin:round;stroke-miterlimit:4;stroke-dasharray:none;paint-order:stroke fill markers"
       id="path883-7"
       cx="33.29583"
       cy="23.976267"
       r="1" />
    <circle
       style="opacity:0.998;fill:#291512;fill-opacity:1;stroke:none;stroke-width:0.201951;stroke-linejoin:round;stroke-miterlimit:4;stroke-dasharray:none;paint-order:stroke fill markers"
       id="path883-5"
       cx="36.210476"
       cy="23.817781"
       r="1" />
    <circle
       style="opacity:0.998;fill:#291512;fill-opacity:1;stroke:none;stroke-width:0.201951;stroke-linejoin:round;stroke-miterlimit:4;stroke-dasharray:none;paint-order:stroke fill markers"
       id="path883-35"
       cx="38.133202"
       cy="23.685318"
       r="1" />
    <path
       style="fill:#000000;stroke-width:0.0165192"
       d="m 11.762219,33.001357 c -0.139827,-0.0907 -0.483275,-0.450295 -0.6044,-0.632816 -0.637645,-0.960853 -0.623849,-2.130479 0.03619,-3.067835 0.118975,-0.168964 0.366724,-0.428023 0.522829,-0.546694 l 0.101991,-0.07754 1.54168,10e-5 1.54168,10e-5 0.165297,0.138025 c 0.494765,0.413139 0.829719,1.007754 0.925459,1.642892 0.03552,0.235628 0.0315,0.618308 -0.009,0.855055 -0.08522,0.498485 -0.333288,0.998793 -0.677452,1.366293 -0.131594,0.140518 -0.333363,0.316863 -0.407377,0.356048 -0.02655,0.01405 -0.43504,0.0191 -1.545852,0.0191 h -1.509743 z m 2.499535,-2.272356 c -0.02173,-0.603221 -0.180056,-1.175605 -0.42837,-1.548685 l -0.05498,-0.0826 -0.91094,-0.0043 -0.910941,-0.0043 -0.135345,0.127321 c -0.231032,0.217338 -0.410055,0.469762 -0.529259,0.746257 -0.119767,0.277803 -0.180739,0.56676 -0.180852,0.857098 l -6.9e-5,0.169322 h 1.580061 1.580061 z m 1.342405,0.09911 C 15.603781,30.246874 15.370471,29.697517 14.9411,29.267037 l -0.177125,-0.177582 h -0.240631 c -0.15486,0 -0.240631,0.0061 -0.240631,0.0171 0,0.0094 0.01047,0.03357 0.02325,0.05369 0.01279,0.02012 0.05288,0.107208 0.0891,0.193521 0.184253,0.43918 0.284112,0.941183 0.284112,1.428269 v 0.207142 h 0.462541 0.46254 l -1.25e-4,-0.161063 z m -3.766305,-2.630694 v -0.214751 h 0.632296 0.632294 l 0.401423,-0.31602 c 0.429936,-0.338466 0.482306,-0.394094 0.546227,-0.580204 0.04593,-0.133734 0.06742,-0.310941 0.06742,-0.555939 v -0.210825 l 0.169324,-0.03715 c 0.09313,-0.02043 0.186049,-0.04105 0.206492,-0.04582 l 0.03717,-0.0087 v 0.296975 c 0,0.409136 -0.03881,0.625641 -0.153219,0.854699 -0.08018,0.160531 -0.184098,0.276794 -0.393814,0.440601 l -0.197281,0.154094 0.54561,0.0044 0.54561,0.0044 v 0.214529 0.214528 h -1.519775 -1.519777 z m -0.602559,-1.525415 c -0.02,-0.06754 -0.05868,-0.24719 -0.05418,-0.251686 0.003,-0.003 0.15755,-0.03963 0.343476,-0.08142 0.185925,-0.0418 0.732032,-0.165241 1.21357,-0.27432 0.481537,-0.10908 1.035347,-0.234434 1.230687,-0.278566 1.02988,-0.232673 1.364961,-0.308514 1.724556,-0.390327 0.217113,-0.0494 0.398409,-0.08615 0.402879,-0.08168 0.01582,0.01582 0.06563,0.248744 0.05532,0.25869 -0.009,0.0087 -0.464848,0.11295 -2.455326,0.561538 -0.380658,0.08579 -0.767292,0.173454 -1.742786,0.395162 -0.322541,0.07331 -0.614807,0.13969 -0.649482,0.14752 -0.04436,0.01002 -0.06473,0.0086 -0.06871,-0.0049 z m 1.55242,-0.887381 c -0.108854,-0.03505 -0.189965,-0.147684 -0.189638,-0.263331 4.22e-4,-0.166955 0.139921,-0.292226 0.305039,-0.274023 0.09256,0.01021 0.147415,0.04431 0.204043,0.126868 0.05145,0.075 0.04569,0.228751 -0.01157,0.30917 -0.06464,0.09077 -0.201123,0.13569 -0.307871,0.101316 z m 0.795963,-0.187401 c -0.118537,-0.04368 -0.176489,-0.132366 -0.176489,-0.270085 0,-0.104606 0.04905,-0.181138 0.148178,-0.231217 0.08899,-0.04496 0.151934,-0.04644 0.24166,-0.0057 0.09128,0.04145 0.143008,0.117875 0.151834,0.224306 0.01696,0.204494 -0.174721,0.352872 -0.365183,0.282688 z m 0.788592,-0.189853 c -0.224238,-0.101844 -0.216128,-0.413322 0.01315,-0.505061 0.10805,-0.04323 0.201706,-0.02255 0.287821,0.06357 0.113305,0.113305 0.117767,0.256888 0.01163,0.374365 -0.08826,0.0977 -0.194891,0.120594 -0.312605,0.06713 z m 0.819004,-0.168862 c -0.06244,-0.02477 -0.145773,-0.112653 -0.166571,-0.175673 -0.06675,-0.202265 0.133786,-0.412255 0.335877,-0.351707 0.143524,0.043 0.235696,0.198846 0.195989,0.331379 -0.04869,0.162503 -0.219157,0.253969 -0.365295,0.196001 z"
       id="path959" />
    <path
       style="fill:none;stroke:#000000;stroke-width:0.264583px;stroke-linecap:butt;stroke-linejoin:miter;stroke-opacity:1"
       d="m 15.91744,25.48034 c 3.321741,-0.743799 6.331957,-1.509216 10.409237,-2.112918 4.908498,-0.509677 8.411686,-0.566952 12.418607,-0.786391 l 8.594339,-0.503291"
       id="path963"
       sodipodi:nodetypes="cccc" />
    <path
       style="fill:none;stroke:#000000;stroke-width:0.264583px;stroke-linecap:butt;stroke-linejoin:miter;stroke-opacity:1"
       d="M 11.404404,26.512224 5.8323894,27.655572"
       id="path965" />
    <path
       style="fill:none;stroke:#000000;stroke-width:0.1;stroke-linecap:butt;stroke-linejoin:miter;stroke-miterlimit:4;stroke-dasharray:none;stroke-opacity:1"
       d="m 6.5580924,24.869723 c -0.789639,0.97539 -1.546424,1.963182 -0.39265,3.250957 0.886629,1.286537 -0.810198,1.791174 -0.628138,2.736015"
       id="path967"
       sodipodi:nodetypes="ccc" />
    <path
       style="fill:none;stroke:#000000;stroke-width:0.1;stroke-linecap:butt;stroke-linejoin:miter;stroke-miterlimit:4;stroke-dasharray:none;stroke-opacity:1"
       d="m 49.130618,19.567836 c -1.135107,0.535208 -2.246016,1.095866 -1.766675,2.757128 0.23929,1.54403 -1.50821,1.260963 -1.754931,2.191017"
       id="path967-6"
       sodipodi:nodetypes="ccc" />
    <rect
       style="opacity:0.998;fill:#000000;fill-opacity:0.49;stroke:none;stroke-width:0.2;stroke-linejoin:round;stroke-miterlimit:4;stroke-dasharray:none;paint-order:stroke fill markers"
       id="rect873-2"
       width="20.200834"
       height="70.045029"
       x="63.714809"
       y="36.529751" />
    <rect
       style="opacity:0.998;fill:#000000;fill-opacity:0.494154;stroke:none;stroke-width:0.198093;stroke-linejoin:round;stroke-miterlimit:4;stroke-dasharray:none;paint-order:stroke fill markers"
       id="rect875-9"
       width="3.2667124"
       height="10.121963"
       x="72.321365"
       y="26.408119" />
    <rect
       style="opacity:0.998;fill:#000000;fill-opacity:0.49;stroke:none;stroke-width:0.292427;stroke-linejoin:round;stroke-miterlimit:4;stroke-dasharray:none;paint-order:stroke fill markers"
       id="rect879-1"
       width="15.149938"
       height="4.0370622"
       x="66.359154"
       y="22.371691" />
    <rect
       style="opacity:0.998;fill:#291512;fill-opacity:1;stroke:none;stroke-width:0.1;stroke-linejoin:round;stroke-miterlimit:4;stroke-dasharray:none;paint-order:stroke fill markers"
       id="rect1063"
       width="0.35425809"
       height="1.5952998"
       x="81.512093"
       y="23.627838" />
    <rect
       style="opacity:0.998;fill:#291512;fill-opacity:1;stroke:none;stroke-width:0.1;stroke-linejoin:round;stroke-miterlimit:4;stroke-dasharray:none;paint-order:stroke fill markers"
       id="rect1065"
       width="0.75354737"
       height="3.1723967"
       x="81.87104"
       y="22.803688" />
    <rect
       style="opacity:0.998;fill:#291512;fill-opacity:1;stroke:none;stroke-width:0.1;stroke-linejoin:round;stroke-miterlimit:4;stroke-dasharray:none;paint-order:stroke fill markers"
       id="rect1067"
       width="0.17741568"
       height="0.89323193"
       x="82.62455"
       y="23.848875" />
    <rect
       style="opacity:0.998;fill:#291512;fill-opacity:1;stroke:none;stroke-width:0.0964838;stroke-linejoin:round;stroke-miterlimit:4;stroke-dasharray:none;paint-order:stroke fill markers"
       id="rect1069"
       width="0.47424227"
       height="2"
       x="82.790894"
       y="23.254578" />
    <rect
       style="opacity:0.998;fill:#291512;fill-opacity:1;stroke:none;stroke-width:0.1;stroke-linejoin:round;stroke-miterlimit:4;stroke-dasharray:none;paint-order:stroke fill markers"
       id="rect1063-2"
       width="0.35425809"
       height="1.5952998"
       x="-64.950439"
       y="-25.338114"
       transform="scale(-1)" />
    <rect
       style="opacity:0.998;fill:#291512;fill-opacity:1;stroke:none;stroke-width:0.1;stroke-linejoin:round;stroke-miterlimit:4;stroke-dasharray:none;paint-order:stroke fill markers"
       id="rect1065-6"
       width="0.75354737"
       height="3.1723967"
       x="-65.708679"
       y="-26.091061"
       transform="scale(-1)" />
    <rect
       style="opacity:0.998;fill:#291512;fill-opacity:1;stroke:none;stroke-width:0.1;stroke-linejoin:round;stroke-miterlimit:4;stroke-dasharray:none;paint-order:stroke fill markers"
       id="rect1067-1"
       width="0.17741568"
       height="0.89323193"
       x="-65.886055"
       y="-24.857082"
       transform="scale(-1)" />
    <rect
       style="opacity:0.998;fill:#291512;fill-opacity:1;stroke:none;stroke-width:0.0964838;stroke-linejoin:round;stroke-miterlimit:4;stroke-dasharray:none;paint-order:stroke fill markers"
       id="rect1069-8"
       width="0.47424227"
       height="2"
       x="-66.34922"
       y="-25.369553"
       transform="scale(-1)" />
    <path
       style="fill:#1e0f0d;fill-opacity:0.861287;stroke:#000000;stroke-width:0.264583px;stroke-linecap:butt;stroke-linejoin:miter;stroke-opacity:1"
       d="M 74.171087,22.400088 C 73.761488,22.211364 61.667344,8.8964322 61.667344,8.8964322"
       id="path1127" />
    <use
       xlink:href="#Buffer_Small"
       style="fill:#000000;fill-opacity:1;stroke:#000000;stroke-width:2"
       id="use1317"
       x="0"
       y="0"
       width="100%"
       height="100%"
       transform="matrix(0.58955285,0.60629295,-0.28177909,0.27399901,68.116671,8.7154318)" />
    <text
       xml:space="preserve"
       id="text1331"
       style="font-style:normal;font-weight:normal;font-size:7.05556px;line-height:1.25;font-family:sans-serif;white-space:pre;shape-inside:url(#rect1333);fill:#000000;fill-opacity:1;stroke:none;"
       transform="translate(11.013347,-1.995619)"><tspan
         x="47.105469"
         y="9.9297777"><tspan
           style="font-style:normal;font-variant:normal;font-weight:normal;font-stretch:normal;font-size:8.46667px;font-family:cmmi10;-inkscape-font-specification:cmmi10">1</tspan></tspan></text>
    <path
       style="fill:#1e0f0d;fill-opacity:0.861287;stroke:#000000;stroke-width:0.264583px;stroke-linecap:butt;stroke-linejoin:miter;stroke-opacity:1"
       d="M 25.83287,24.075472 C 25.423271,23.886748 13.329127,10.571817 13.329127,10.571817"
       id="path1127-4" />
    <use
       xlink:href="#Buffer_Small"
       style="fill:#000000;fill-opacity:1;stroke:#000000;stroke-width:2"
       id="use1317-4"
       x="0"
       y="0"
       width="100%"
       height="100%"
       transform="matrix(0.58955285,0.60629295,-0.28177909,0.27399901,19.778454,10.390816)" />
    <path
       style="fill:#1e0f0d;fill-opacity:0.861287;stroke:#000000;stroke-width:0.264583px;stroke-linecap:butt;stroke-linejoin:miter;stroke-opacity:1"
       d="M 12.79449,33.350712 C 12.8263,33.800574 6.9795467,50.811488 6.9795467,50.811488"
       id="path1127-4-1" />
    <use
       xlink:href="#Buffer_Small"
       style="fill:#000000;fill-opacity:1;stroke:#000000;stroke-width:2"
       id="use1317-4-2"
       x="0"
       y="0"
       width="100%"
       height="100%"
       transform="matrix(0.24752591,-0.80863751,0.37582021,0.11503948,3.7156443,45.246102)" />
    <text
       xml:space="preserve"
       id="text1331-9-9"
       style="font-style:normal;font-weight:normal;font-size:7.05556px;line-height:1.25;font-family:sans-serif;white-space:pre;shape-inside:url(#rect1333-5-8);fill:#000000;fill-opacity:1;stroke:none;"
       transform="translate(-43.969551,45.701307)"><tspan
         x="47.105469"
         y="8.660233"><tspan
           style="font-style:normal;font-variant:normal;font-weight:normal;font-stretch:normal;font-size:7.05556px;font-family:cmmi10;-inkscape-font-specification:cmmi10">3</tspan></tspan></text>
    <path
       style="fill:none;stroke:#000000;stroke-width:0.1;stroke-linecap:butt;stroke-linejoin:miter;stroke-miterlimit:4;stroke-dasharray:none;stroke-opacity:1"
       d="M 81.509094,22.371691 H 104.05"
       id="path1466" />
    <path
       style="fill:none;stroke:#000000;stroke-width:0.1;stroke-linecap:butt;stroke-linejoin:miter;stroke-miterlimit:4;stroke-dasharray:none;stroke-opacity:1"
       d="M 83.820071,106.57073 H 104.05"
       id="path1468" />
    <path
       style="fill:none;stroke:#000000;stroke-width:0.1;stroke-linecap:butt;stroke-linejoin:miter;stroke-miterlimit:4;stroke-dasharray:none;stroke-opacity:1"
       d="M 104.05,22.371691 V 106.57073"
       id="path1470" />
    <path
       style="fill:none;stroke:#000000;stroke-width:0.0997506;stroke-linecap:butt;stroke-linejoin:miter;stroke-miterlimit:4;stroke-dasharray:none;stroke-opacity:1"
       d="m 63.714809,106.57478 v 9.79771"
       id="path1472" />
    <path
       style="fill:none;stroke:#000000;stroke-width:0.1;stroke-linecap:butt;stroke-linejoin:miter;stroke-miterlimit:4;stroke-dasharray:none;stroke-opacity:1"
       d="m 83.915641,106.57478 v 9.77019"
       id="path1474" />
    <path
       style="fill:none;stroke:#000000;stroke-width:0.1;stroke-linecap:butt;stroke-linejoin:miter;stroke-miterlimit:4;stroke-dasharray:none;stroke-opacity:1"
       d="M 63.716461,116.32129 H 83.941603"
       id="path1476" />
    <use
       xlink:href="#Buffer_Small"
       style="fill:#000000;fill-opacity:1;stroke:#000000;stroke-width:2"
       id="use1493"
       x="0"
       y="0"
       width="100%"
       height="100%"
       transform="matrix(0.27895422,0,0,0.12273206,79.287111,114.72133)" />
    <use
       xlink:href="#Buffer_Small"
       style="fill:#000000;fill-opacity:1;stroke:#000000;stroke-width:2"
       id="use1493-6"
       x="0"
       y="0"
       width="100%"
       height="100%"
       transform="matrix(-0.27895422,0,0,-0.12273206,68.344991,117.94493)" />
    <use
       xlink:href="#Buffer_Small"
       style="fill:#000000;fill-opacity:1;stroke:#000000;stroke-width:2"
       id="use1493-4"
       x="0"
       y="0"
       width="100%"
       height="100%"
       transform="matrix(0,0.27895422,-0.12273206,0,105.67364,101.9422)" />
    <use
       xlink:href="#Buffer_Small"
       style="fill:#000000;fill-opacity:1;stroke:#000000;stroke-width:2"
       id="use1493-0"
       x="0"
       y="0"
       width="100%"
       height="100%"
       transform="matrix(0,-0.27895422,0.12273206,0,102.42636,27.000221)" />
    <text
       xml:space="preserve"
       id="text1331-9-9-4"
       style="font-style:normal;font-weight:normal;font-size:7.05556px;line-height:1.25;font-family:sans-serif;white-space:pre;shape-inside:url(#rect1333-5-8-9);fill:#000000;fill-opacity:1;stroke:none;"
       transform="translate(22.793935,107.14063)"><tspan
         x="47.105469"
         y="8.5550171"><tspan
           style="font-style:normal;font-variant:normal;font-weight:normal;font-stretch:normal;font-size:4.93889px;font-family:cmr10;-inkscape-font-specification:cmr10">12m</tspan></tspan></text>
    <text
       xml:space="preserve"
       id="text1331-9-9-4-9"
       style="font-style:normal;font-weight:normal;font-size:7.05556px;line-height:1.25;font-family:sans-serif;white-space:pre;shape-inside:url(#rect1333-5-8-9-2);fill:#000000;fill-opacity:1;stroke:none;"
       transform="rotate(-90,103.84229,9.0791718)"><tspan
         x="47.105469"
         y="8.5550171"><tspan
           style="font-style:normal;font-variant:normal;font-weight:normal;font-stretch:normal;font-size:4.93889px;font-family:cmr10;-inkscape-font-specification:cmr10">48m</tspan></tspan></text>
    <path
       style="fill:none;stroke:#000000;stroke-width:0.099048;stroke-linecap:butt;stroke-linejoin:miter;stroke-miterlimit:4;stroke-dasharray:none;stroke-opacity:1"
       d="M 94.05,22.422252 V 36.568259"
       id="path1623" />
    <path
       style="fill:none;stroke:#000000;stroke-width:0.1;stroke-linecap:butt;stroke-linejoin:miter;stroke-miterlimit:4;stroke-dasharray:none;stroke-opacity:1"
       d="M 83.915641,36.52975 H 94.020268"
       id="path1625" />
    <use
       xlink:href="#Buffer_Small"
       style="fill:#000000;fill-opacity:1;stroke:#000000;stroke-width:2"
       id="use1493-0-2"
       x="0"
       y="0"
       width="100%"
       height="100%"
       transform="matrix(0,-0.27895422,0.12273206,0,92.426357,27.050782)" />
    <use
       xlink:href="#Buffer_Small"
       style="fill:#000000;fill-opacity:1;stroke:#000000;stroke-width:2"
       id="use1493-0-8"
       x="0"
       y="0"
       width="100%"
       height="100%"
       transform="matrix(0,0.27895422,-0.12273206,0,95.643911,31.90122)" />
    <text
       xml:space="preserve"
       id="text1331-9-9-4-9-2"
       style="font-style:normal;font-weight:normal;font-size:7.05556px;line-height:1.25;font-family:sans-serif;white-space:pre;shape-inside:url(#rect1333-5-8-9-2-1);fill:#000000;fill-opacity:1;stroke:none;"
       transform="rotate(-90,82.553486,-2.3938556)"><tspan
         x="47.105469"
         y="8.5550171"><tspan
           style="font-style:normal;font-variant:normal;font-weight:normal;font-stretch:normal;font-size:4.93889px;font-family:cmr10;-inkscape-font-specification:cmr10">6m</tspan></tspan></text>
    <text
       xml:space="preserve"
       style="font-style:normal;font-weight:normal;font-size:10.5833px;line-height:1.25;font-family:sans-serif;fill:#000000;fill-opacity:1;stroke:none;stroke-width:0.264583"
       x="11.368331"
       y="9.323904"
       id="text1701"><tspan
         sodipodi:role="line"
         id="tspan1699"
         x="11.368331"
         y="9.323904"
         style="font-size:7.05556px;stroke-width:0.264583" /></text>
    <text
       xml:space="preserve"
       id="text1721"
       style="font-style:normal;font-weight:normal;font-size:10.5833px;line-height:1.25;font-family:sans-serif;white-space:pre;shape-inside:url(#rect1723);fill:#000000;fill-opacity:1;stroke:none;" />
    <text
       xml:space="preserve"
       id="text1331-7"
       style="font-style:normal;font-weight:normal;font-size:7.05556px;line-height:1.25;font-family:sans-serif;white-space:pre;shape-inside:url(#rect1333-9);fill:#000000;fill-opacity:1;stroke:none;"
       transform="translate(-37.021737,-0.5511102)"><tspan
         x="47.105469"
         y="9.9297777"><tspan
           style="font-style:normal;font-variant:normal;font-weight:normal;font-stretch:normal;font-size:8.46667px;font-family:cmmi10;-inkscape-font-specification:cmmi10">2</tspan></tspan></text>
    <path
       style="fill:#1e0f0d;fill-opacity:0.861287;stroke:#000000;stroke-width:0.264583px;stroke-linecap:butt;stroke-linejoin:miter;stroke-opacity:1"
       d="M 22.202081,61.376082 C 22.012073,61.785087 8.6592608,73.837394 8.6592608,73.837394"
       id="path1127-4-2" />
    <use
       xlink:href="#Buffer_Small"
       style="fill:#000000;fill-opacity:1;stroke:#000000;stroke-width:2"
       id="use1317-4-9"
       x="0"
       y="0"
       width="100%"
       height="100%"
       transform="matrix(0.60813975,-0.58764764,0.27311355,0.2826374,8.4984962,67.387531)" />
    <text
       xml:space="preserve"
       id="text1331-9-9-2"
       style="font-style:normal;font-weight:normal;font-size:7.05556px;line-height:1.25;font-family:sans-serif;white-space:pre;shape-inside:url(#rect1333-5-8-1);fill:#000000;fill-opacity:1;stroke:none;"
       transform="translate(-42.519787,66.793264)"><tspan
         x="47.105469"
         y="8.660233"><tspan
           style="font-style:normal;font-variant:normal;font-weight:normal;font-stretch:normal;font-size:7.05556px;font-family:cmmi10;-inkscape-font-specification:cmmi10">4</tspan></tspan></text>
  </g>
</svg>
